HIERARCHY
ROOT Hips
{
	OFFSET 0.00000 0.00000 0.00000
	CHANNELS 6 Xposition Yposition Zposition Zrotation Yrotation Xrotation 
	JOINT LHipJoint
	{
		OFFSET 0 0 0
		CHANNELS 3 Zrotation Yrotation Xrotation
		JOINT LeftUpLeg
		{
			OFFSET 2.36090 -1.39315 1.24752
			CHANNELS 3 Zrotation Yrotation Xrotation
			JOINT LeftLeg
			{
				OFFSET 2.06810 -5.68207 0.00000
				CHANNELS 3 Zrotation Yrotation Xrotation
				JOINT LeftFoot
				{
					OFFSET 2.46631 -6.77613 0.00000
					CHANNELS 3 Zrotation Yrotation Xrotation
					JOINT LeftToeBase
					{
						OFFSET 0.26031 -0.71520 1.99545
						CHANNELS 3 Zrotation Yrotation Xrotation
						End Site
						{
							OFFSET 0.00000 -0.00000 1.05957
						}
					}
				}
			}
		}
	}
	JOINT RHipJoint
	{
		OFFSET 0 0 0
		CHANNELS 3 Zrotation Yrotation Xrotation
		JOINT RightUpLeg
		{
			OFFSET -2.25243 -1.39315 1.24752
			CHANNELS 3 Zrotation Yrotation Xrotation
			JOINT RightLeg
			{
				OFFSET -2.17343 -5.97145 0.00000
				CHANNELS 3 Zrotation Yrotation Xrotation
				JOINT RightFoot
				{
					OFFSET -2.52372 -6.93386 0.00000
					CHANNELS 3 Zrotation Yrotation Xrotation
					JOINT RightToeBase
					{
						OFFSET -0.22538 -0.61923 2.11447
						CHANNELS 3 Zrotation Yrotation Xrotation
						End Site
						{
							OFFSET -0.00000 -0.00000 1.10506
						}
					}
				}
			}
		}
	}
	JOINT LowerBack
	{
		OFFSET 0 0 0
		CHANNELS 3 Zrotation Yrotation Xrotation
		JOINT Spine
		{
			OFFSET 0.01594 2.13103 0.08007
			CHANNELS 3 Zrotation Yrotation Xrotation
			JOINT Spine1
			{
				OFFSET 0.01393 2.09723 0.18338
				CHANNELS 3 Zrotation Yrotation Xrotation
				JOINT Neck
				{
					OFFSET 0 0 0
					CHANNELS 3 Zrotation Yrotation Xrotation
					JOINT Neck1
					{
						OFFSET 0.05351 1.38915 0.32494
						CHANNELS 3 Zrotation Yrotation Xrotation
						JOINT Head
						{
							OFFSET 0.00711 1.45992 -0.21666
							CHANNELS 3 Zrotation Yrotation Xrotation
							End Site
							{
								OFFSET -0.00433 1.47702 -0.11056
							}
						}
					}
				}
				JOINT LeftShoulder
				{
					OFFSET 0 0 0
					CHANNELS 3 Zrotation Yrotation Xrotation
					JOINT LeftArm
					{
						OFFSET 2.87198 0.92249 0.11132
						CHANNELS 3 Zrotation Yrotation Xrotation
						JOINT LeftForeArm
						{
							OFFSET 5.52731 -0.00000 0.00000
							CHANNELS 3 Zrotation Yrotation Xrotation
							JOINT LeftHand
							{
								OFFSET 3.11059 -0.00000 0.00000
								CHANNELS 3 Zrotation Yrotation Xrotation
								JOINT LeftFingerBase
								{
									OFFSET 0 0 0
									CHANNELS 3 Zrotation Yrotation Xrotation
									JOINT LeftHandIndex1
									{
										OFFSET 0.41963 -0.00000 0.00000
										CHANNELS 3 Zrotation Yrotation Xrotation
										End Site
										{
											OFFSET 0.33831 -0.00000 0.00000
										}
									}
								}
								JOINT LThumb
								{
									OFFSET 0 0 0
									CHANNELS 3 Zrotation Yrotation Xrotation
									End Site
									{
										OFFSET 0.34348 -0.00000 0.34348
									}
								}
							}
						}
					}
				}
				JOINT RightShoulder
				{
					OFFSET 0 0 0
					CHANNELS 3 Zrotation Yrotation Xrotation
					JOINT RightArm
					{
						OFFSET -2.94710 0.68072 0.32187
						CHANNELS 3 Zrotation Yrotation Xrotation
						JOINT RightForeArm
						{
							OFFSET -5.25396 -0.00000 -0.00000
							CHANNELS 3 Zrotation Yrotation Xrotation
							JOINT RightHand
							{
								OFFSET -3.10567 -0.00000 0.00000
								CHANNELS 3 Zrotation Yrotation Xrotation
								JOINT RightFingerBase
								{
									OFFSET 0 0 0
									CHANNELS 3 Zrotation Yrotation Xrotation
									JOINT RightHandIndex1
									{
										OFFSET -0.49868 -0.00000 0.00000
										CHANNELS 3 Zrotation Yrotation Xrotation
										End Site
										{
											OFFSET -0.40204 -0.00000 0.00000
										}
									}
								}
								JOINT RThumb
								{
									OFFSET 0 0 0
									CHANNELS 3 Zrotation Yrotation Xrotation
									End Site
									{
										OFFSET -0.40818 -0.00000 0.40818
									}
								}
							}
						}
					}
				}
			}
		}
	}
}
MOTION
Frames: 5
Frame Time: .0083333
-0.5308 16.0209 -28.0300 166.7760 71.0963 -173.2890 0.0000 0.0000 0.0000 -12.9269 -15.9338 -46.6584 11.9632 18.3750 65.8720 -0.0071 -2.0941 -0.7992 1.6345 -8.0592 -22.8939 0.0000 0.0000 0.0000 23.8418 30.9533 -28.1598 -4.0897 -12.2788 36.7255 -0.7049 -0.8347 -16.1847 -0.4747 -4.4188 12.2580 2.9473 -3.1068 -8.9162 4.8415 -4.2082 -4.0663 2.9553 -1.9964 0.9197 -4.6374 -14.8035 -7.5999 6.7505 -20.3804 14.5013 1.0333 -9.5180 6.8458 0.0000 -0.0000 0.0000 -82.4672 22.0083 40.2999 9.8636 -16.5259 -1.4359 -0.0000 0.0000 -31.6177 18.8100 -4.4677 -1.5199 -7.1250 0.0000 -0.0000 -5.8931 25.2586 2.8293 0.0000 -0.0000 0.0000 76.4800 -0.4684 58.0728 -43.3247 49.9208 -20.9488 0.0000 -0.0000 -15.3625 -14.7815 -13.2904 3.4713 7.1250 -0.0000 -0.0000 11.4481 -43.4111 0.4553
-0.4118 16.0293 -28.0905 165.2510 72.4053 -174.4710 0.0000 0.0000 0.0000 -12.6255 -16.4514 -47.2607 11.4317 18.1399 64.1756 0.0077 -1.3315 -1.6993 1.7070 -8.2271 -23.4060 0.0000 0.0000 0.0000 23.5695 31.5137 -27.7481 -4.0916 -12.2814 36.7347 -0.7390 -0.1987 -16.3203 -0.4823 -4.4535 12.3562 2.7002 -2.9497 -8.9659 4.5876 -3.9984 -3.9949 2.8444 -1.8974 1.0146 -4.8955 -15.1388 -7.5261 7.1393 -20.8504 14.1147 1.1427 -9.7478 6.8074 -0.0000 0.0000 0.0000 -82.4985 22.6064 38.4739 9.2727 -15.5939 -1.2724 -0.0000 0.0000 -29.5372 18.5197 -3.7391 -1.2514 -7.1250 0.0000 -0.0000 -6.1372 26.0299 2.8368 -0.0000 0.0000 0.0000 76.4919 -0.1263 59.2785 -46.2903 51.3852 -23.2426 0.0000 -0.0000 -15.5084 -14.6314 -12.8867 3.3322 7.1250 -0.0000 -0.0000 11.4817 -42.9888 0.5780
-0.2903 16.0371 -28.1480 163.4020 73.7179 -175.9640 0.0000 0.0000 0.0000 -12.3147 -16.9429 -47.7860 10.8585 17.8651 62.3211 0.0206 -0.4923 -2.5801 1.7802 -8.3924 -23.9125 0.0000 0.0000 0.0000 23.2506 32.1260 -27.3977 -4.1155 -12.3126 36.8468 -0.7745 0.4061 -16.4992 -0.4807 -4.4463 12.3357 2.3545 -2.8217 -9.0231 4.3619 -3.8170 -3.9391 2.8160 -1.8112 1.1069 -5.1635 -15.4875 -7.4810 7.4282 -21.3240 13.7772 1.2182 -9.9853 6.7822 -0.0000 0.0000 0.0000 -82.5355 23.3683 37.0056 8.9791 -15.1271 -1.1947 -0.0000 0.0000 -27.9131 18.7558 -2.8097 -0.9536 -7.1250 0.0000 -0.0000 -5.9959 27.0008 2.6336 -0.0000 0.0000 0.0000 76.4402 0.1917 60.4604 -49.4057 52.7530 -25.7003 0.0000 -0.0000 -15.6200 -14.2246 -12.4859 3.1370 7.1250 -0.0000 -0.0000 11.7437 -42.5443 0.7224
-0.1663 16.0447 -28.2023 161.1420 75.0136 -177.8560 0.0000 0.0000 0.0000 -11.9987 -17.4162 -48.2174 10.2350 17.5399 60.2710 0.0297 0.4112 -3.4337 1.8465 -8.5388 -24.3631 0.0000 0.0000 0.0000 22.8962 32.7189 -27.0720 -4.1380 -12.3418 36.9522 -0.8078 1.0307 -16.6653 -0.4740 -4.4153 12.2480 1.9206 -2.7235 -9.0944 4.1555 -3.6657 -3.9010 2.8547 -1.7387 1.1956 -5.4760 -15.8555 -7.4560 7.6487 -21.8121 13.5030 1.2719 -10.2338 6.7811 0.0000 -0.0000 0.0000 -82.5584 24.2900 36.0710 8.9497 -15.0803 -1.1870 -0.0000 0.0000 -26.9477 19.4307 -1.8250 -0.6436 -7.1250 0.0000 -0.0000 -5.5221 28.0300 2.2891 0.0000 -0.0000 0.0000 76.3468 0.4791 61.6073 -52.6504 54.0101 -28.3050 0.0000 -0.0000 -15.6811 -13.7133 -12.1478 2.9396 7.1250 -0.0000 -0.0000 12.1114 -42.1546 0.8641
-0.0527 16.0594 -28.2364 158.3370 76.1864 -178.3220 0.0000 0.0000 0.0000 -10.8695 -18.4171 -51.0056 9.5947 17.1755 58.1248 0.0270 1.3795 -3.9316 1.9123 -8.6809 -24.8023 0.0000 0.0000 0.0000 21.1267 34.2775 -29.2953 -4.1737 -12.3881 37.1190 -0.8084 1.4211 -16.5668 -0.4633 -4.3662 12.1092 1.3327 -2.7038 -11.0494 4.0500 -3.6007 -4.4307 3.0123 -1.6835 1.7430 -5.8457 -16.2117 -7.4187 7.8288 -22.2743 13.2682 1.3213 -10.4743 6.7926 -0.0000 -0.0000 0.0000 -82.5781 25.3342 35.6041 9.1157 -15.3446 -1.2305 -0.0000 0.0000 -26.6273 20.3818 -1.0209 -0.3793 -7.1250 0.0000 -0.0000 -4.8214 28.8768 1.8996 -0.0000 -0.0000 0.0000 76.2313 0.7457 62.7274 -55.9833 55.1410 -31.0213 0.0000 -0.0000 -15.6852 -13.2938 -11.9536 2.8017 7.1250 -0.0000 -0.0000 12.4315 -41.9198 0.9610
